<svg viewBox="0 0 200 200" xmlns="http://www.w3.org/2000/svg" id="图层_1"><defs><style>.cls-1{fill:#35322d;stroke:#040000;}.cls-1,.cls-2,.cls-3,.cls-5{stroke-miterlimit:10;}.cls-2{fill:#fff;}.cls-2,.cls-3{stroke:#231815;}.cls-3{fill:#5f5e5c;}.cls-4{fill:#231815;}.cls-5{fill:none;stroke:#fff;}</style></defs><title>未标题-2</title><rect height="98.78" width="134.32" y="72.25" x="31.33" class="cls-1"></rect><rect height="27.44" width="133.23" y="72.25" x="31.33" class="cls-1"></rect><polygon points="160.37 72.25 139.37 72.25 118.37 99.69 139.37 99.69 160.37 72.25" class="cls-2"></polygon><polygon points="126.28 72.25 105.28 72.25 84.29 99.69 105.28 99.69 126.28 72.25" class="cls-2"></polygon><polygon points="162.72 51.55 31.59 72.25 26.84 45.18 157.97 24.48 162.72 51.55" class="cls-1"></polygon><polygon points="158.88 52.16 138.16 55.43 112.7 31.63 133.42 28.36 158.88 52.16" class="cls-2"></polygon><polygon points="125.25 57.47 104.54 60.73 79.08 36.94 99.79 33.67 125.25 57.47" class="cls-2"></polygon><polygon points="89.43 63.12 68.71 66.39 43.25 42.59 63.97 39.32 89.43 63.12" class="cls-2"></polygon><polygon points="89.97 72.25 68.97 72.25 47.97 99.69 68.97 99.69 89.97 72.25" class="cls-2"></polygon><ellipse ry="11.65" rx="12.28" cy="72.01" cx="31.1" class="cls-3"></ellipse><ellipse ry="3.97" rx="4.18" cy="72.25" cx="31.03" class="cls-4"></ellipse><line y2="121.64" x2="164.05" y1="121.64" x1="32.14" class="cls-5"></line><line y2="147.15" x2="164.56" y1="147.15" x1="31.74" class="cls-5"></line><polyline points="121.57 121.64 116.24 135.79 126.28 135.79 121.26 146.62" class="cls-5"></polyline><polyline points="63.13 121.64 57.81 135.79 67.85 135.79 62.83 146.62" class="cls-5"></polyline></svg>